<svg width="32" height="32" viewBox="0 0 32 32" fill="none" xmlns="http://www.w3.org/2000/svg">
<rect width="32" height="32" rx="16" fill="white"/>
<path d="M22.7692 8H9.23077C8.90435 8 8.5913 8.12967 8.36048 8.36048C8.12967 8.5913 8 8.90435 8 9.23077V22.7692C8 23.0957 8.12967 23.4087 8.36048 23.6395C8.5913 23.8703 8.90435 24 9.23077 24H22.7692C23.0957 24 23.4087 23.8703 23.6395 23.6395C23.8703 23.4087 24 23.0957 24 22.7692V9.23077C24 8.90435 23.8703 8.5913 23.6395 8.36048C23.4087 8.12967 23.0957 8 22.7692 8ZM22.7692 22.7692H9.23077V9.23077H22.7692V22.7692ZM13.5385 14.7692V19.6923C13.5385 19.8555 13.4736 20.012 13.3582 20.1275C13.2428 20.2429 13.0863 20.3077 12.9231 20.3077C12.7599 20.3077 12.6033 20.2429 12.4879 20.1275C12.3725 20.012 12.3077 19.8555 12.3077 19.6923V14.7692C12.3077 14.606 12.3725 14.4495 12.4879 14.3341C12.6033 14.2187 12.7599 14.1538 12.9231 14.1538C13.0863 14.1538 13.2428 14.2187 13.3582 14.3341C13.4736 14.4495 13.5385 14.606 13.5385 14.7692ZM20.3077 16.9231V19.6923C20.3077 19.8555 20.2429 20.012 20.1275 20.1275C20.012 20.2429 19.8555 20.3077 19.6923 20.3077C19.5291 20.3077 19.3726 20.2429 19.2572 20.1275C19.1418 20.012 19.0769 19.8555 19.0769 19.6923V16.9231C19.0769 16.5151 18.9148 16.1237 18.6263 15.8352C18.3378 15.5467 17.9465 15.3846 17.5385 15.3846C17.1304 15.3846 16.7391 15.5467 16.4506 15.8352C16.1621 16.1237 16 16.5151 16 16.9231V19.6923C16 19.8555 15.9352 20.012 15.8198 20.1275C15.7044 20.2429 15.5478 20.3077 15.3846 20.3077C15.2214 20.3077 15.0649 20.2429 14.9495 20.1275C14.8341 20.012 14.7692 19.8555 14.7692 19.6923V14.7692C14.77 14.6185 14.8261 14.4733 14.9268 14.3611C15.0275 14.249 15.1659 14.1777 15.3157 14.1608C15.4655 14.144 15.6162 14.1826 15.7394 14.2695C15.8626 14.3564 15.9495 14.4855 15.9838 14.6323C16.4001 14.3499 16.8855 14.1862 17.3878 14.1589C17.8901 14.1315 18.3904 14.2415 18.8349 14.477C19.2794 14.7125 19.6514 15.0646 19.9109 15.4956C20.1703 15.9265 20.3075 16.42 20.3077 16.9231ZM13.8462 12.6154C13.8462 12.798 13.792 12.9764 13.6906 13.1282C13.5892 13.28 13.445 13.3983 13.2763 13.4682C13.1077 13.5381 12.9221 13.5563 12.743 13.5207C12.5639 13.4851 12.3995 13.3972 12.2704 13.2681C12.1413 13.139 12.0534 12.9745 12.0177 12.7955C11.9821 12.6164 12.0004 12.4308 12.0703 12.2621C12.1401 12.0935 12.2584 11.9493 12.4102 11.8479C12.562 11.7464 12.7405 11.6923 12.9231 11.6923C13.1679 11.6923 13.4027 11.7896 13.5758 11.9627C13.7489 12.1358 13.8462 12.3706 13.8462 12.6154Z" fill="#D0474F"/>
</svg>
