<svg width="60" height="60" viewBox="0 0 60 60" fill="none" xmlns="http://www.w3.org/2000/svg">
<rect width="60" height="60" rx="8" fill="#F5F5FF"/>
<path d="M49.4999 46.1848L45.6449 39.7348V29.3174C45.6449 28.9048 45.3074 28.5674 44.8949 28.5674H40.3949C39.9824 28.5674 39.6449 28.9048 39.6449 29.3174V39.6298L36.2099 46.2224C36.0899 46.4549 36.0974 46.7324 36.2324 46.9574C36.3674 47.1823 36.6074 47.3173 36.8699 47.3173H48.8549C49.1249 47.3173 49.3724 47.1748 49.5074 46.9348C49.6424 46.7023 49.6349 46.4099 49.4999 46.1848ZM38.1074 45.8173L41.0624 40.1624C41.1149 40.0573 41.1449 39.9374 41.1449 39.8173V30.0674H44.1449V39.9449C44.1449 40.0799 44.1824 40.2074 44.2499 40.3273L47.5349 45.8173H38.1074ZM29.1449 39.8173H11.1449C10.7324 39.8173 10.3949 40.1548 10.3949 40.5673V46.5673C10.3949 46.9799 10.7324 47.3173 11.1449 47.3173H29.1449C29.5574 47.3173 29.8949 46.9799 29.8949 46.5673V40.5673C29.8949 40.1548 29.5574 39.8173 29.1449 39.8173ZM28.3949 45.8173H11.8949V41.3173H28.3949V45.8173Z" fill="#D0474F"/>
<path d="M25.3949 36.0674H14.8949C14.4824 36.0674 14.1449 36.4048 14.1449 36.8174V40.5673C14.1449 40.9799 14.4824 41.3173 14.8949 41.3173H25.3949C25.8074 41.3173 26.1449 40.9799 26.1449 40.5673V36.8174C26.1449 36.4048 25.8074 36.0674 25.3949 36.0674ZM15.6449 39.8173V37.5673H24.6449V39.8173H15.6449Z" fill="#D0474F"/>
<path d="M21.0524 26.9776C21.0074 27.0227 20.9699 27.0601 20.9249 27.1051C17.1824 30.9451 17.8574 34.6801 18.2999 36.0676C18.4049 36.3901 18.4949 36.5852 18.5099 36.6226C18.6749 36.9676 18.5549 37.3726 18.2474 37.5676H17.4149C17.3099 37.5001 17.2199 37.4026 17.1599 37.2826C17.1524 37.2676 16.9424 36.8176 16.7549 36.0676C16.2674 34.0801 15.9599 29.9551 19.9874 25.9201C20.0699 25.8376 20.1599 25.7776 20.2649 25.7476C20.5274 25.6501 20.8424 25.7102 21.0524 25.9201C21.3449 26.2126 21.3449 26.6851 21.0524 26.9776ZM24.4649 27.8326C24.5024 28.0201 24.4574 28.2226 24.3299 28.3876C24.2924 28.4401 24.2549 28.4926 24.2174 28.5451C24.0449 28.7851 23.8949 29.0176 23.7599 29.2501C21.9299 32.2727 22.4474 34.9501 22.7999 36.0676C22.9049 36.3977 22.9949 36.5926 23.0099 36.6226C23.1749 36.9676 23.0549 37.3726 22.7474 37.5676H21.9149C21.8099 37.5001 21.7199 37.4026 21.6599 37.2826C21.6299 37.2226 21.4274 36.7876 21.2399 36.0676C20.8424 34.4851 20.5499 31.5376 22.5674 28.3201C22.6274 28.2151 22.7024 28.1101 22.7774 27.9976C22.8824 27.8326 23.0024 27.6601 23.1299 27.4951C23.2424 27.3451 23.3999 27.2476 23.5649 27.2102C23.5724 27.2026 23.5799 27.2102 23.5799 27.2102C23.7824 27.1651 23.9999 27.2026 24.1799 27.3376C24.3449 27.4651 24.4424 27.6451 24.4649 27.8326Z" fill="#D0474F"/>
<path d="M27.5699 24.0599C27.2699 22.5974 26.1149 21.4424 24.6524 21.1424C24.4049 21.0899 24.1499 21.0674 23.8949 21.0674C22.2149 21.0674 20.7974 22.1699 20.3174 23.6849C20.2049 24.0449 20.1449 24.4199 20.1449 24.8174C20.1449 25.1023 20.1749 25.3724 20.2349 25.6424C20.2424 25.6799 20.2499 25.7099 20.2649 25.7474C20.3924 26.2499 20.6174 26.7074 20.9249 27.1049C21.3449 27.6524 21.9149 28.0799 22.5674 28.3199C22.6949 28.3724 22.8224 28.4174 22.9574 28.4474H22.9649C23.2649 28.5298 23.5724 28.5674 23.8949 28.5674C24.0074 28.5674 24.1124 28.5599 24.2174 28.5449C24.4949 28.5298 24.7649 28.4773 25.0199 28.3873C26.5424 27.9223 27.6449 26.4974 27.6449 24.8174C27.6449 24.5549 27.6149 24.3073 27.5699 24.0599ZM23.8949 27.0674C22.6574 27.0674 21.6449 26.0549 21.6449 24.8174C21.6449 23.5724 22.6574 22.5674 23.8949 22.5674C25.1399 22.5674 26.1449 23.5724 26.1449 24.8174C26.1449 26.0549 25.1399 27.0674 23.8949 27.0674Z" fill="#D0474F"/>
<path d="M28.021 33.2C27.8291 33.2 27.6372 33.1267 27.4907 32.9802L22.9907 28.4802C22.6978 28.1873 22.6978 27.7126 22.9907 27.4197C23.2837 27.1267 23.7583 27.1267 24.0513 27.4197L28.021 31.3894L31.4604 27.95L19.771 16.2605L16.3315 19.7L21.0513 24.4197C21.3442 24.7126 21.3442 25.1873 21.0513 25.4802C20.7583 25.7732 20.2837 25.7732 19.9907 25.4802L14.7407 20.2302C14.4478 19.9373 14.4478 19.4626 14.7407 19.1697L19.2407 14.6697C19.5337 14.3767 20.0083 14.3767 20.3013 14.6697L33.0513 27.4197C33.3442 27.7126 33.3442 28.1873 33.0513 28.4802L28.5513 32.9802C28.4048 33.1267 28.2129 33.2 28.021 33.2Z" fill="#D0474F"/>
<path d="M16.396 19.325C16.2041 19.325 16.0122 19.2517 15.8657 19.1052L12.5991 15.8386C12.3062 15.5457 12.3062 15.071 12.5991 14.7781L14.4741 12.9031C14.7671 12.6101 15.2417 12.6101 15.5347 12.9031L18.8013 16.1697C19.0942 16.4626 19.0942 16.9373 18.8013 17.2302C18.5083 17.5232 18.0337 17.5232 17.7407 17.2302L15.0044 14.4939L14.1899 15.3083L16.9263 18.0447C17.2192 18.3376 17.2192 18.8123 16.9263 19.1052C16.7798 19.2517 16.5879 19.325 16.396 19.325Z" fill="#D0474F"/>
</svg>
