<svg width="60" height="60" viewBox="0 0 60 60" fill="none" xmlns="http://www.w3.org/2000/svg">
<rect width="60" height="60" rx="8" fill="#F5F5FF"/>
<path d="M25.0754 33.0169H22.5899V30.5317C22.5899 30.3577 22.5208 30.1908 22.3977 30.0677C22.2746 29.9446 22.1077 29.8755 21.9336 29.8755H19.1305C18.9565 29.8755 18.7896 29.9446 18.6665 30.0677C18.5434 30.1908 18.4743 30.3577 18.4743 30.5317V33.0169H15.9888C15.8147 33.0169 15.6478 33.086 15.5247 33.2091C15.4017 33.3321 15.3325 33.4991 15.3325 33.6731V36.4766C15.3325 36.6507 15.4017 36.8176 15.5247 36.9407C15.6478 37.0637 15.8147 37.1329 15.9888 37.1329H18.4743V39.6184C18.4743 39.7924 18.5434 39.9593 18.6665 40.0824C18.7896 40.2055 18.9565 40.2746 19.1305 40.2746H21.9336C22.1077 40.2746 22.2746 40.2055 22.3977 40.0824C22.5208 39.9593 22.5899 39.7924 22.5899 39.6184V37.1329H25.0754C25.2494 37.1329 25.4164 37.0637 25.5394 36.9407C25.6625 36.8176 25.7316 36.6507 25.7316 36.4766V33.675C25.7319 33.5887 25.7151 33.5031 25.6822 33.4233C25.6494 33.3434 25.6011 33.2709 25.5401 33.2097C25.4791 33.1486 25.4067 33.1001 25.327 33.067C25.2472 33.0339 25.1617 33.0169 25.0754 33.0169ZM24.4191 35.8204H21.9336C21.7596 35.8204 21.5927 35.8895 21.4696 36.0126C21.3465 36.1356 21.2774 36.3026 21.2774 36.4766V38.9625H19.7868V36.4766C19.7868 36.3026 19.7176 36.1356 19.5946 36.0126C19.4715 35.8895 19.3046 35.8204 19.1305 35.8204H16.645V34.3294H19.1305C19.3046 34.3294 19.4715 34.2602 19.5946 34.1372C19.7176 34.0141 19.7868 33.8472 19.7868 33.6731V31.188H21.2774V33.675C21.2774 33.849 21.3465 34.016 21.4696 34.139C21.5927 34.2621 21.7596 34.3312 21.9336 34.3312H24.4191V35.8204Z" fill="#D0474F"/>
<path d="M49.5191 42.6224L46.5979 39.7672L43.6767 36.9119C43.0155 36.2677 42.126 35.9119 41.203 35.9225C40.2799 35.933 39.3988 36.3091 38.7525 36.9682L38.6292 37.0942C38.0584 37.6775 37.711 38.4429 37.6476 39.2565C37.5843 40.0701 37.8091 40.8801 38.2826 41.5447H31.5957V26.6666C31.596 25.8458 31.4185 25.0347 31.0754 24.2891C30.7323 23.5434 30.2317 22.881 29.6082 22.3473C29.1286 21.9367 28.7437 21.4271 28.4799 20.8535C28.2162 20.28 28.0797 19.6561 28.08 19.0248V17.0467H28.9609C29.0471 17.0467 29.1324 17.0297 29.212 16.9967C29.2917 16.9638 29.364 16.9154 29.4249 16.8545C29.4859 16.7935 29.5342 16.7212 29.5672 16.6416C29.6002 16.562 29.6172 16.4766 29.6172 16.3904V11.9714C29.6172 11.7974 29.548 11.6305 29.4249 11.5074C29.3019 11.3843 29.135 11.3152 28.9609 11.3152H12.1024C11.9284 11.3152 11.7614 11.3843 11.6384 11.5074C11.5153 11.6305 11.4462 11.7974 11.4462 11.9714V16.3904C11.4462 16.4766 11.4631 16.562 11.4961 16.6416C11.5291 16.7212 11.5774 16.7935 11.6384 16.8545C11.6993 16.9154 11.7716 16.9638 11.8513 16.9967C11.9309 17.0297 12.0162 17.0467 12.1024 17.0467H12.9833V19.0248C12.9836 19.6561 12.8472 20.28 12.5834 20.8536C12.3196 21.4271 11.9347 21.9367 11.4552 22.3473C10.8316 22.881 10.3311 23.5435 9.98797 24.2891C9.64487 25.0347 9.46737 25.8458 9.46765 26.6666V45.1248C9.46835 46.0687 9.84363 46.9738 10.5111 47.6413C11.1785 48.3087 12.0836 48.684 13.0275 48.6847H28.0358C28.4501 48.684 28.8611 48.6105 29.25 48.4676C29.634 48.6104 30.0403 48.684 30.45 48.6847H38.6213C39.5184 48.6832 40.3804 48.3356 41.0277 47.7144C41.675 47.0932 42.0577 46.2462 42.096 45.3498L44.5305 47.7292C45.1916 48.3734 46.0812 48.7292 47.0042 48.7187C47.9272 48.7081 48.8084 48.3321 49.4547 47.6729L49.578 47.5469C49.8977 47.2199 50.1498 46.8331 50.3199 46.4086C50.4901 45.9841 50.5749 45.5302 50.5697 45.073C50.5644 44.6157 50.4691 44.1639 50.2893 43.7434C50.1094 43.323 49.8485 42.9421 49.5214 42.6224H49.5191ZM39.5663 38.0099L39.6896 37.8839C40.0923 37.473 40.6414 37.2385 41.2167 37.2319C41.7919 37.2253 42.3463 37.4471 42.7583 37.8487L45.2108 40.2457L42.0548 43.4752L39.6023 41.0782C39.1907 40.676 38.9557 40.1268 38.949 39.5514C38.9423 38.976 39.1641 38.4215 39.5663 38.0099ZM10.7813 28.3544H30.2813V41.5439H10.7813V28.3544ZM24.0522 15.7342V12.6277H25.6035V15.7342H24.0522ZM21.1883 15.7342V12.6277H22.7397V15.7342H21.1883ZM18.3244 15.7342V12.6277H19.875V15.7342H18.3244ZM15.4605 15.7342V12.6277H17.0119V15.7342H15.4605ZM28.3054 15.7342H26.916V12.6277H28.3058L28.3054 15.7342ZM12.7587 12.6277H14.1484V15.7342H12.7587V12.6277ZM12.3087 23.3437C12.9322 22.8101 13.4328 22.1477 13.7759 21.4021C14.119 20.6566 14.2965 19.8455 14.2962 19.0248V17.0467H26.7687V19.0248C26.7684 19.8455 26.9459 20.6565 27.289 21.4021C27.6321 22.1476 28.1326 22.81 28.7562 23.3437C29.2357 23.7543 29.6206 24.2639 29.8844 24.8374C30.1482 25.411 30.2846 26.0349 30.2843 26.6662V27.0412H10.7843V26.6662C10.7836 26.0351 10.9196 25.4114 11.1829 24.8379C11.4462 24.2644 11.8305 23.7546 12.3094 23.3437H12.3087ZM10.7813 45.1248V42.8564H27.729C27.2348 43.4717 26.9656 44.2374 26.9659 45.0266V45.2024C26.9657 45.9915 27.2349 46.757 27.729 47.3722H13.029C12.4331 47.3716 11.8618 47.1346 11.4404 46.7133C11.019 46.292 10.782 45.7207 10.7813 45.1248ZM28.278 45.2024V45.0266C28.2786 44.4513 28.5074 43.8997 28.9142 43.4928C29.3209 43.086 29.8725 42.8571 30.4478 42.8564H33.8771V47.3722H30.4478C29.8725 47.3715 29.3211 47.1427 28.9143 46.7359C28.5075 46.3292 28.2787 45.7777 28.278 45.2024ZM40.7888 45.2024C40.7881 45.7777 40.5593 46.3292 40.1525 46.7359C39.7457 47.1427 39.1943 47.3715 38.619 47.3722H35.1896V42.8564H38.619C39.1943 42.8571 39.7459 43.086 40.1526 43.4928C40.5594 43.8997 40.7882 44.4513 40.7888 45.0266V45.2024ZM48.6371 46.6297L48.5138 46.7557C48.3151 46.9601 48.0778 47.1231 47.8157 47.2351C47.5536 47.3472 47.2718 47.4061 46.9868 47.4086C46.7014 47.4156 46.4176 47.3645 46.1526 47.2583C45.8876 47.1521 45.647 46.9931 45.4455 46.7909L42.993 44.3939L46.149 41.1644L48.6015 43.5614C49.013 43.9636 49.2479 44.5128 49.2546 45.0882C49.2613 45.6636 49.0392 46.218 48.6371 46.6297Z" fill="#D0474F"/>
</svg>
