<svg width="60" height="60" viewBox="0 0 60 60" fill="none" xmlns="http://www.w3.org/2000/svg">
<rect width="60" height="60" rx="8" fill="#F5F5FF"/>
<path d="M23.25 45.75V51.75C23.2507 52.3465 23.4879 52.9185 23.9097 53.3403C24.3315 53.7621 24.9035 53.9993 25.5 54H27C27.5965 53.9993 28.1685 53.7621 28.5903 53.3403C29.0121 52.9185 29.2493 52.3465 29.25 51.75V45.75H27.75V51.75C27.7497 51.9488 27.6706 52.1394 27.53 52.28C27.3894 52.4206 27.1988 52.4997 27 52.5H25.5C25.3012 52.4997 25.1106 52.4206 24.97 52.28C24.8294 52.1394 24.7503 51.9488 24.75 51.75V45.75H23.25ZM30.75 45.75V51.75C30.7507 52.3465 30.9879 52.9185 31.4097 53.3403C31.8315 53.7621 32.4035 53.9993 33 54H34.5C35.0965 53.9993 35.6685 53.7621 36.0903 53.3403C36.5121 52.9185 36.7493 52.3465 36.75 51.75V45.75H35.25V51.75C35.2497 51.9488 35.1706 52.1394 35.03 52.28C34.8894 52.4206 34.6988 52.4997 34.5 52.5H33C32.8012 52.4997 32.6106 52.4206 32.47 52.28C32.3294 52.1394 32.2503 51.9488 32.25 51.75V45.75H30.75ZM46.125 42V25.125C46.1243 24.5285 45.8871 23.9565 45.4653 23.5347C45.0435 23.1129 44.4715 22.8757 43.875 22.875H16.125C15.5285 22.8757 14.9565 23.1129 14.5347 23.5347C14.1129 23.9565 13.8757 24.5285 13.875 25.125V42C13.8757 42.5965 14.1129 43.1685 14.5347 43.5903C14.9565 44.0121 15.5285 44.2493 16.125 44.25H43.875C44.4715 44.2493 45.0435 44.0121 45.4653 43.5903C45.8871 43.1685 46.1243 42.5965 46.125 42ZM25.2684 42.75C25.4596 42.297 25.7824 41.9118 26.195 41.6444C26.6076 41.377 27.0911 41.2396 27.5826 41.25C27.9318 41.2474 28.2778 41.3166 28.5991 41.4531C28.9205 41.5896 29.2105 41.7905 29.4511 42.0436C29.4549 42.0477 29.4599 42.0505 29.4639 42.0545C29.4885 42.0786 29.5147 42.101 29.5424 42.1216C29.5522 42.1289 29.5606 42.1381 29.5707 42.1449C29.6963 42.2336 29.8462 42.2812 30 42.2812C30.1538 42.2812 30.3037 42.2336 30.4293 42.1449C30.4394 42.1381 30.4478 42.1289 30.4576 42.1216C30.4853 42.101 30.5115 42.0786 30.5361 42.0545C30.5401 42.0505 30.5451 42.0477 30.549 42.0436C30.7895 41.7905 31.0795 41.5896 31.4009 41.4531C31.7222 41.3166 32.0682 41.2474 32.4174 41.25C32.909 41.2396 33.3924 41.377 33.805 41.6444C34.2176 41.9118 34.5404 42.297 34.7316 42.75H25.2684ZM32.4174 39.75C31.843 39.7505 31.2751 39.8709 30.75 40.1036V28.0312C30.75 27.8323 30.671 27.6416 30.5303 27.5009C30.3897 27.3603 30.1989 27.2812 30 27.2812C29.8011 27.2812 29.6103 27.3603 29.4697 27.5009C29.329 27.6416 29.25 27.8323 29.25 28.0312V40.1036C28.7249 39.8709 28.157 39.7505 27.5826 39.75C26.6914 39.7343 25.8214 40.023 25.1164 40.5684C24.4114 41.1138 23.9134 41.8834 23.7048 42.75H16.125C15.9262 42.7497 15.7356 42.6706 15.595 42.53C15.4544 42.3894 15.3753 42.1988 15.375 42V25.125C15.3752 24.9262 15.4543 24.7355 15.5949 24.5949C15.7355 24.4543 15.9262 24.3752 16.125 24.375H43.875C44.0738 24.3752 44.2645 24.4543 44.4051 24.5949C44.5457 24.7355 44.6248 24.9262 44.625 25.125V42C44.6247 42.1988 44.5456 42.3894 44.405 42.53C44.2644 42.6706 44.0738 42.7497 43.875 42.75H36.2952C36.0866 41.8834 35.5886 41.1138 34.8836 40.5684C34.1786 40.023 33.3086 39.7343 32.4174 39.75Z" fill="#D0474F"/>
<path d="M23.1712 26.0087C23.0822 25.8308 22.9262 25.6956 22.7375 25.6327C22.5488 25.5698 22.3429 25.5845 22.165 25.6734C21.9871 25.7624 21.8518 25.9184 21.7889 26.107C21.726 26.2957 21.7406 26.5016 21.8294 26.6796C22.3393 27.7079 23.1272 28.5729 24.1036 29.1763C25.08 29.7798 26.2059 30.0976 27.3537 30.0938H27.75V28.5938H27.3537C26.4847 28.5967 25.6322 28.3561 24.8929 27.8991C24.1537 27.4422 23.5572 26.7873 23.1712 26.0087ZM21.6712 29.7587C21.5822 29.5808 21.4262 29.4456 21.2375 29.3827C21.0488 29.3198 20.8429 29.3345 20.665 29.4234C20.4871 29.5124 20.3518 29.6684 20.2889 29.857C20.226 30.0457 20.2406 30.2516 20.3294 30.4296C20.8393 31.458 21.6271 32.3229 22.6035 32.9264C23.58 33.5298 24.7059 33.8476 25.8537 33.8438H27.75V32.3438H25.8537C24.9847 32.3467 24.1322 32.1061 23.3929 31.6491C22.6537 31.1922 22.0572 30.5373 21.6712 29.7587ZM20.1712 33.5087C20.0822 33.3308 19.9262 33.1956 19.7375 33.1327C19.5488 33.0698 19.3429 33.0845 19.165 33.1734C18.9871 33.2624 18.8518 33.4184 18.7889 33.607C18.726 33.7957 18.7406 34.0016 18.8294 34.1796C19.3393 35.208 20.1271 36.0729 21.1035 36.6764C22.08 37.2798 23.2059 37.5976 24.3537 37.5938H27.75V36.0938H24.3537C23.4847 36.0967 22.6322 35.8561 21.8929 35.3991C21.1537 34.9422 20.5572 34.2873 20.1712 33.5087ZM40.8351 33.1732C40.747 33.1291 40.6511 33.1027 40.5528 33.0957C40.4545 33.0887 40.3558 33.1011 40.2623 33.1323C40.1689 33.1634 40.0825 33.2127 40.0081 33.2773C39.9337 33.3419 39.8727 33.4205 39.8287 33.5087C39.4427 34.2873 38.8463 34.9422 38.107 35.3991C37.3678 35.856 36.5153 36.0967 35.6462 36.0938H32.25V37.5938H35.6462C36.7941 37.5976 37.92 37.2798 38.8964 36.6764C39.8728 36.0729 40.6607 35.2079 41.1705 34.1796C41.2146 34.0915 41.2409 33.9955 41.2479 33.8973C41.2549 33.799 41.2424 33.7004 41.2113 33.6069C41.1801 33.5134 41.1309 33.427 41.0663 33.3526C41.0018 33.2782 40.9232 33.2173 40.8351 33.1732ZM39.6705 30.4296C39.7586 30.2517 39.7727 30.0462 39.7096 29.8581C39.6465 29.6699 39.5114 29.5144 39.3338 29.4257C39.1563 29.3369 38.9509 29.3221 38.7625 29.3846C38.5741 29.447 38.4181 29.5815 38.3287 29.7587C37.9427 30.5373 37.3463 31.1922 36.607 31.6491C35.8678 32.1061 35.0153 32.3467 34.1462 32.3438H32.25V33.8438H34.1462C35.2941 33.8476 36.42 33.5298 37.3964 32.9264C38.3728 32.3229 39.1607 31.4579 39.6705 30.4296ZM38.1705 26.6796C38.2586 26.5017 38.2727 26.2962 38.2096 26.1081C38.1465 25.9199 38.0114 25.7644 37.8338 25.6757C37.6563 25.5869 37.4509 25.5721 37.2625 25.6346C37.0741 25.697 36.9181 25.8315 36.8287 26.0087C36.4427 26.7873 35.8463 27.4422 35.107 27.8991C34.3678 28.3561 33.5153 28.5967 32.6462 28.5938H32.25V30.0938H32.6462C33.7941 30.0976 34.92 29.7798 35.8964 29.1763C36.8728 28.5729 37.6606 27.7079 38.1705 26.6796ZM30 6C26.6878 6 24 9.1908 24 13.1262C23.9823 14.1652 24.1763 15.1968 24.5704 16.1583C24.9645 17.1198 25.5502 17.991 26.292 18.7187C26.2484 18.7786 26.2039 18.8389 26.1548 18.9012C25.7014 19.4708 25.1218 19.9273 24.4618 20.2344C23.827 20.5339 23.2355 20.9176 22.7032 21.375H25.5011C26.2072 20.9847 26.8296 20.4595 27.3332 19.8292C27.3958 19.7497 27.4465 19.6742 27.5025 19.5969C28.2602 20.0222 29.1139 20.247 29.9827 20.25C30.8516 20.253 31.7068 20.0341 32.4673 19.614C33.01 20.3361 33.6984 20.9361 34.4879 21.375H37.2958C36.7781 20.9295 36.2042 20.5539 35.5887 20.2579C34.8409 19.9126 34.1879 19.3912 33.6856 18.7384C34.4342 18.0106 35.0258 17.1371 35.4238 16.1719C35.8219 15.2067 36.018 14.1701 36 13.1262C36 9.1908 33.3116 6 30 6ZM30 18.75C27.5187 18.75 25.5 16.2272 25.5 13.1262C25.5 10.0239 27.5187 7.5 30 7.5C32.4813 7.5 34.5 10.0239 34.5 13.1262C34.5 16.2272 32.4813 18.75 30 18.75Z" fill="#D0474F"/>
</svg>
