<svg width="28" height="28" viewBox="0 0 32 32" fill="none" xmlns="http://www.w3.org/2000/svg">
<rect width="28" height="28" rx="16" fill="#E6F0FD"/>
<path d="M17.6208 8.82819L10.9008 15.4282C10.7886 15.5386 10.6374 15.6004 10.48 15.6004C10.3226 15.6004 10.1715 15.5386 10.0593 15.4282L7.17928 12.5999C7.12309 12.5447 7.07833 12.4789 7.04757 12.4064C7.0168 12.3338 7.00062 12.2559 6.99996 12.1771C6.9993 12.0983 7.01416 12.0201 7.04371 11.9471C7.07325 11.874 7.1169 11.8075 7.17215 11.7513C7.22741 11.6951 7.29319 11.6504 7.36574 11.6196C7.43829 11.5888 7.51619 11.5727 7.59499 11.572C7.67379 11.5713 7.75195 11.5862 7.82501 11.6157C7.89807 11.6453 7.96459 11.6889 8.02078 11.7442L10.48 14.1592L16.78 7.97169C16.8936 7.8601 17.0469 7.7982 17.2061 7.79961C17.2849 7.80031 17.3628 7.81652 17.4354 7.84734C17.508 7.87815 17.5738 7.92296 17.629 7.97919C17.6843 8.03543 17.7279 8.102 17.7574 8.17511C17.787 8.24821 17.8018 8.32641 17.8011 8.40525C17.8004 8.48408 17.7842 8.56201 17.7534 8.63458C17.7226 8.70715 17.6778 8.77294 17.6215 8.82819H17.6208ZM24.8283 7.97919C24.773 7.92291 24.7073 7.87807 24.6347 7.84723C24.5621 7.81639 24.4842 7.80016 24.4053 7.79946C24.3265 7.79877 24.2483 7.81362 24.1752 7.84317C24.1021 7.87272 24.0355 7.9164 23.9793 7.97169L17.6793 14.1592L16.267 12.7717C16.1534 12.6602 16.0002 12.5984 15.8411 12.5999C15.6819 12.6014 15.5299 12.666 15.4184 12.7796C15.3069 12.8931 15.2451 13.0464 15.2466 13.2055C15.2481 13.3647 15.3127 13.5167 15.4263 13.6282L17.2585 15.4282C17.3708 15.5386 17.5219 15.6004 17.6793 15.6004C17.8367 15.6004 17.9878 15.5386 18.1 15.4282L24.82 8.82819C24.8764 8.77301 24.9213 8.70727 24.9522 8.63473C24.9831 8.56218 24.9994 8.48425 25.0001 8.4054C25.0009 8.32655 24.9861 8.24833 24.9566 8.17519C24.9271 8.10206 24.8835 8.03546 24.8283 7.97919Z" fill="#D0474F"/>
</svg>
