<svg width="32" height="32" viewBox="0 0 32 32" fill="none" xmlns="http://www.w3.org/2000/svg">
<path d="M0 16C0 7.16344 7.16344 0 16 0C24.8366 0 32 7.16344 32 16C32 24.8366 24.8366 32 16 32C7.16344 32 0 24.8366 0 16Z" fill="white"/>
<path d="M25 8.5H7C6.80109 8.5 6.61032 8.57902 6.46967 8.71967C6.32902 8.86032 6.25 9.05109 6.25 9.25V22C6.25 22.3978 6.40804 22.7794 6.68934 23.0607C6.97064 23.342 7.35218 23.5 7.75 23.5H24.25C24.6478 23.5 25.0294 23.342 25.3107 23.0607C25.592 22.7794 25.75 22.3978 25.75 22V9.25C25.75 9.05109 25.671 8.86032 25.5303 8.71967C25.3897 8.57902 25.1989 8.5 25 8.5ZM23.0716 10L16 16.4828L8.92844 10H23.0716ZM24.25 22H7.75V10.9553L15.4928 18.0531C15.6312 18.1801 15.8122 18.2506 16 18.2506C16.1878 18.2506 16.3688 18.1801 16.5072 18.0531L24.25 10.9553V22Z" fill="#D0474F"/>
</svg>
